<svg xmlns="http://www.w3.org/2000/svg" viewBox="0 0 2048 2048"><style>.glyph{fill:#0F4C3A}@media (prefers-color-scheme: dark){.glyph{fill:#F5EFE6}}</style><path class="glyph" d="M818.5 337.4c-8.3 2.4-15.5 5.5-21.2 9.3-6.4 4.2-62.6 57.5-141.8 134.3-8.2 8-18.8 18.1-23.5 22.5s-18.6 17.7-31 29.6c-12.4 11.8-34.2 32.5-48.5 46-14.3 13.4-33.8 31.8-43.3 40.9s-20.7 19.6-25 23.5c-4.2 3.8-13.5 12.7-20.7 19.6-7.1 7-16.4 15.7-20.6 19.5S423.2 701 408.4 715c-14.7 14-31.8 30.2-37.8 35.9-6.1 5.8-19.6 18.6-30.1 28.6-27.2 26-99.4 94.7-123.5 117.6-11.3 10.7-24.1 22.5-28.4 26.4-4.4 3.8-13.1 12.2-19.5 18.5-9.6 9.6-12 12.7-14.8 18.8-1.9 4.1-3.8 9.9-4.4 13-.5 3.1-.9 23-.9 44.2 0 43 .2 44.9 6.7 57.2 5.2 9.9 11.8 16.1 27.4 25.2 7.4 4.4 19.3 11.4 26.4 15.7 7.2 4.2 19.2 11.2 26.7 15.5 28.7 16.5 45.9 26.7 46.4 27.5.3.5-9.4 20.5-21.5 44.4-12.2 23.9-22.1 44.2-22.1 45.1s2 3.6 4.4 6c4.1 4.2 4.6 4.4 10.3 4.4 3.3 0 11.1-.9 17.3-2 13.8-2.5 13.2-3 18.6 12 6.4 17.5 10.5 19.8 28.8 16.1 14.6-3.1 15.1-3 17.9 2.6 1.4 2.7 3.2 7.1 4.1 10 3.3 9.9 10 16.3 17.3 16.3 1.5 0 7.9-1.2 14.2-2.7l11.3-2.8 1.9 2.4c1 1.3 2.7 4.6 3.6 7.4 3.3 9.5 7.7 17.1 11.2 19.4 4.3 2.9 10.3 3 22.5.4 5.6-1.2 9.8-1.6 11.2-1.1 1.5.6 3.3 3.8 6.4 11.7 4.9 12.2 8.4 16.4 14.8 18.4 3.8 1.1 5.4 1 15-1.4 12-3.1 14.5-3.3 16-1.4.6.7 2.9 5.6 5 10.9 4.1 10.2 9 17.6 13.4 20.2 3.9 2.4 9.3 2.1 11.9-.7 1.1-1.2 10.1-18.6 20-38.5 9.8-20 18.2-36.2 18.7-36 1.8.7 27.2 16.4 33.7 20.8 3.9 2.6 9.9 6.3 13.6 8.3 3.6 2 7.5 4.7 8.7 5.9 1.1 1.3 4.4 7.3 7.3 13.3 6.1 13.2 12.8 22.5 21.2 29.7 3.4 2.9 8.2 7.1 10.7 9.3 8.8 8.1 29.9 18.5 43 21.4 3 .7 13 1.6 22.2 2l16.7.7 8.3 5.1c4.6 2.7 16.2 9.6 25.8 15.3s27 16.1 38.5 23c11.6 7 29.3 17.7 39.5 23.7 26.8 15.9 26.9 16 33.5 20.1 3.3 2.1 19.7 12 36.5 22.1s35 21.1 40.5 24.4c9.9 6 12.4 7.4 40.9 24.1 8.2 4.8 16.7 10 19 11.5 2.2 1.6 6.1 3.8 8.6 5.1 2.5 1.2 10.8 5.9 18.5 10.5 7.7 4.5 25.3 14.9 39 23 13.8 8.1 31.3 18.6 39 23.2 58.7 35.6 66.7 40.1 79.1 44.2 19.1 6.4 35.6 6.3 56.4-.4 19.2-6.3 30.7-14.8 67-49.9 9.1-8.7 20.6-19.8 25.5-24.6 15.5-14.9 49.6-47.3 55.3-52.5 3.1-2.8 12.4-11.5 20.7-19.5 8.4-8 18.8-17.9 23.2-22 16.9-16 63.7-60.5 84.6-80.5 12-11.6 32.3-30.9 45-42.9 12.8-12 36.3-34.5 52.2-50 43.4-41.9 52-50.2 75.5-72.6 11.8-11.3 28.9-27.7 38-36.5 15.1-14.7 50.9-48.8 84.3-80.4 36-33.9 59.9-57.7 63.2-62.6 4.2-6.4 7.1-14.2 8.6-23.4.7-4.1 1-24.8 1-54.5-.1-40.1-.4-48.8-1.7-54-4-15.6-12.5-24.4-37-38.2-7.6-4.3-19-10.8-25.3-14.6-6.3-3.7-11.8-6.8-12.3-6.8-.4 0-4.8-2.4-9.6-5.3-27-16.4-30.8-18.3-33.2-16.5-5.2 3.8-16.9 14.1-17.3 15.2-.5 1.3 13 10.1 28.5 18.7 4.6 2.5 15.3 8.5 23.8 13.3 8.5 4.9 20 11.4 25.5 14.4 20.2 11.2 23.4 13.3 26.8 17.2 6.3 7.5 7.1 15.4 2.2 25-2.9 5.7-3.5 6.3-26.9 28-29.9 27.7-50.3 46.9-74.6 70-12.4 11.8-36.5 34.8-53.5 51-17.1 16.2-37.7 36-46 44-8.2 8-23.5 22.7-34 32.5-10.4 9.9-26.9 25.6-36.6 35-9.6 9.3-28.3 26.9-41.4 39s-29.8 27.6-37 34.5c-7.1 6.9-23.1 21.9-35.4 33.5-12.4 11.5-33.3 31.3-46.5 44-13.3 12.6-34.3 32.4-46.7 44-29.6 27.6-72.3 68-92.9 88-29.6 28.7-44.6 42.3-49.6 44.8-9.9 4.9-14.9 6-25.8 5.5-12-.6-12.5-.8-40.6-17.8-10.2-6.2-20.9-12.7-23.8-14.4s-8.1-4.8-11.5-6.8c-14.6-8.9-41.3-24.7-54.7-32.6-8-4.7-18.3-10.9-23-13.7-4.7-2.9-10.7-6.5-13.5-8.1-8.8-4.9-49.9-29.6-52.9-31.7-1.6-1.1-6.3-3.9-10.5-6.2s-16.6-9.6-27.6-16.2c-20.4-12.2-59.3-35.3-81-48-40.7-23.9-82.9-40.9-120.7-48.7-6.8-1.4-20.6-3.3-30.8-4.3-10.2-.9-18.7-1.8-18.9-1.9-.4-.4 112.4-112.9 300-299.4 67.2-66.8 169.7-168.9 227.7-226.8 58.1-57.8 106.3-105.2 107.3-105.2 3.1 0 36.3 7.1 51.9 11.2 24.5 6.3 68.6 24.2 91.5 37.2 4.4 2.5 17.9 10 30 16.7s26.7 15 32.5 18.4 14.6 8.4 19.5 11.1c5 2.6 11.3 6.3 14.2 8.1l5.2 3.3 10.3-8.6c5.7-4.7 10.4-9 10.6-9.4.2-.5-2.7-2.5-6.5-4.6-14.5-7.9-41.3-23-52.8-29.8-6.6-3.8-14.9-8.6-18.5-10.6s-12.6-7-20-11.2c-19.9-11-29.8-16.1-46.6-23.8-27.4-12.5-75.1-26.9-101.2-30.5-16.1-2.3-16.6-2.5-20.4-10.3-7.4-15.6-30.3-52.3-40.4-64.7-27.4-33.8-68-73.7-98.4-96.8-24.8-18.8-31.4-23.6-44.2-32-22.2-14.5-52.6-32-77.8-45-12.7-6.5-57.3-27.6-66-31.2-3-1.3-10.4-4.5-16.5-7.3-12.7-5.7-51.8-23.1-75-33.3-8.8-3.9-21.4-9.5-28-12.4-50.3-22.4-51.3-22.8-66.5-23.2-7.7-.2-13.2.2-16.5 1.1m22.8 25.1c3.1.8 11.2 3.9 17.9 6.9 6.8 2.9 13.4 5.7 14.8 6.1s8.9 3.8 16.8 7.6 14.6 6.9 14.8 6.9c1.4 0 47.3 20.1 62.9 27.5 6.6 3.1 17 7.6 23 10 6.1 2.4 15.7 6.6 21.5 9.3s20.4 9.6 32.5 15.3c33.2 15.4 77.1 39.3 96 52.2 47.8 32.6 67.1 47.7 96.4 75.6 27.2 25.8 42.7 44.4 64.3 76.6 14.5 21.6 21.3 33.4 23.3 40.4.7 2.2-4.9 8.1-54.6 57.5-337.9 336.2-450.3 448.1-513.2 510.8-40.6 40.6-74 73.8-74.2 73.8-.1 0-1.8-3.3-3.7-7.3-5.7-11.8-21.4-38.4-30-50.7-8.2-11.6-15.5-20.5-34.5-42.2-5.7-6.5-10.3-12-10.3-12.2 0-1 12.7-21.1 19.9-31.5 20.7-29.9 46.2-59.4 78.2-90.5l19.1-18.5 5.6 2.1c5.6 2.1 17.9 7 72.2 29.1l27.5 11.1 11 .4c9.8.4 11.8.1 18.4-2.2 8.7-3.1 15.7-7.3 20.4-12.5 3.3-3.7 16.8-24.9 29-45.6 3.5-6.1 10.9-18.4 16.4-27.5 27.4-45.1 90.7-151.6 92.3-155.4 7.4-16.5 3.7-37.6-8.5-49.8-2.6-2.6-4.4-5.1-4-5.8.3-.6 5.5-4.3 11.3-8.2 5.9-3.9 20.2-13.7 31.7-21.8 19-13.3 65-44.9 88-60.5 5-3.4 15.5-10.6 23.5-16.2 36.1-25 35.1-24.1 35.2-31.8l.1-4.9-24.4-24c-13.5-13.3-48.1-47.3-76.9-75.6-121-118.9-125.7-123.4-130.6-124.6-3.7-.9-6.3.5-27.4 15.1-10.2 7.1-24.8 17.2-32.5 22.5s-23.4 16.2-35 24.1c-30.3 21-82.6 56.8-132 90.6-23.6 16.2-54 37-67.5 46.3-13.5 9.4-25.4 17.5-26.6 18.1-1.7.9-4.8-.1-18.5-5.9-22.2-9.4-35-14.1-41.7-15.4-11.4-2.1-26.4 1.2-37.4 8.3-8.3 5.4-14 13-31.5 42-19.2 32.1-24.5 40.8-31.9 52.9-2.8 4.7-9.7 16.2-15.2 25.6-5.6 9.4-10.7 17.4-11.4 17.7-.7.2-11.6 7.6-24.3 16.3-12.6 8.7-37.2 25.5-54.5 37.4-39.8 27.3-48.7 33.7-50.5 36.3-1.9 2.7-1.9 7 0 11.1.8 1.7 18.4 19.7 39 40 20.6 20.2 37.5 37.2 37.5 37.8 0 1.3-6.5 9.3-15 18.4-14 14.9-37.2 44.4-43.5 55.1-1.1 1.8-2.3 3.3-2.7 3.3-.5 0-3.1-1.1-5.9-2.5-2.7-1.4-9.6-4.5-15.3-7-5.6-2.4-13.6-5.9-17.7-7.8-11-5.2-17-7.8-43.4-19.2-13.2-5.7-27.1-11.8-31-13.5-3.8-1.8-11.9-5.2-18-7.7-26.3-10.7-30.5-13.7-30.5-21.5.1-9.1 1.5-10.7 68-73.8 22.8-21.7 47.4-45.1 54.5-51.9 22.2-21.4 30.4-29.1 51-48.6 35.2-33.2 68-64.4 92.9-88.1 13.2-12.7 30.9-29.4 39.2-37.1s17.8-16.7 21-19.9c3.3-3.3 21.4-20.5 40.4-38.4 18.9-17.9 40.5-38.4 48-45.6 7.4-7.2 21.6-20.6 31.5-30 9.9-9.3 19.8-18.8 22-21.1s11.2-10.9 20.1-19 29.1-27.2 44.9-42.3 44.5-42.6 63.8-61c19.2-18.4 36.6-34.7 38.6-36.1 5-3.7 13.8-6.8 19.1-6.8 2.5-.1 7.1.6 10.3 1.4m129 130.2c5.6 5.3 43.7 42.5 84.6 82.7s83.8 82.3 95.2 93.4c11.5 11.2 20.9 21.1 20.9 22-.1 1-5.6 5.5-13.8 11-7.5 5.1-22 15.1-32.2 22.1s-34.2 23.5-53.5 36.8c-19.2 13.2-46.9 32.2-61.4 42.2-14.5 9.9-26.9 18.1-27.5 18.1-1.5.1-20.6-7.4-20.5-8 0-.6.6-1 27.4-19.1 11-7.5 24.3-16.5 29.5-20.1 22.5-15.4 65-44.5 71-48.6 13.4-9.1 14.2-11 8.8-21.4-2.8-5.2-3.4-7.4-3.7-14.4-.3-7.2 0-9 2.3-14 1.4-3.1 4.1-7.4 6-9.4 3.9-4.3 5-7.2 4.2-10.4-.3-1.3-15.5-16.9-33.8-34.7-18.3-17.7-44.6-43.4-58.5-57.1-20.3-20.1-25.6-24.8-27.8-24.8-1.5 0-5.9 1.6-9.9 3.5-16.1 8-31 6.8-49.7-4-4.3-2.5-8.9-4.5-10.2-4.5-1.6 0-10.8 5.7-24.3 15.1-12.1 8.4-34.7 24-50.4 34.7-15.7 10.8-38.4 26.4-50.5 34.7-70.9 48.9-111.9 76.8-113.6 77.2-1.8.5-19.9-6.5-19.9-7.7 0-1 29.3-21.5 72-50.5 9.6-6.5 24.7-16.9 33.5-23 8.8-6.2 31.1-21.4 49.5-34s42.7-29.2 54-37c29.7-20.5 67-46.1 78.3-53.8 5.4-3.7 10.7-6.7 11.8-6.7s6.4 4.2 12.2 9.7M923.1 553c4.6 3.4 16.7 7.9 23.8 9.1 10.8 1.7 23.4-.2 37.3-5.6 1.3-.5 12.9 10.2 49.5 45.8 26.3 25.6 49.7 48.5 52.1 50.9l4.3 4.5-3.5 5.2c-7.7 11.5-9.7 26.6-5.1 39.6 1.4 3.8 2.5 7.5 2.5 8.1s-8 6.5-17.7 13.1c-33 22.2-104.8 71.5-115.2 79.1-2.4 1.8-5.1 3.2-6 3.1-.9 0-9.2-3.3-18.6-7.2l-17-7.2-.2-9c-1.1-47.4-36.3-89-86.3-102.2-8.4-2.2-11.6-2.5-27.5-2.6-16.8-.1-18.6.1-26.8 2.6-16.9 5.2-28.5 12.7-39.3 25.6-3.7 4.5-7.1 8.1-7.6 8.1s-6.5-2.3-13.3-5.1c-9.8-4.1-12.3-5.5-11.4-6.5.5-.7 16-11.5 34.2-24 18.3-12.5 43.1-29.6 55.2-38 29-20 60.9-42 110.7-76.1 10.6-7.3 20.1-13.2 21.1-13.3 1.1 0 3.2.9 4.8 2M590.3 680.9c11.6 4.3 53.2 21.2 117.7 47.8 11.3 4.7 28.6 11.8 38.5 15.8 29.1 11.8 40 16.2 58.5 23.9 9.6 4 26.1 10.8 36.5 15.1 10.5 4.3 26.4 10.9 35.5 14.7 9.1 3.9 21.9 9.2 28.5 11.8s21 8.5 32 13 24.7 10.2 30.5 12.5c21.2 8.6 26.1 11.8 30.1 19.7 5.5 10.8 3.2 18.2-14.7 48.3-23 38.5-24.6 41.3-46.9 78.5-12 20.1-28.1 46.8-35.8 59.5-7.7 12.6-18.1 30.2-23.1 39-5 8.7-10.9 17.8-13.1 20-5.1 5.1-11.5 8.3-19.6 9.6-9.8 1.6-11.9.9-60.4-19-11-4.5-25.8-10.6-33-13.6-18.7-7.7-57.3-23.6-76.5-31.5-18.3-7.6-60.3-24.9-75-31-5.2-2.1-27.9-11.5-50.5-20.8-40.6-16.8-70.4-29.1-106.9-44-20.7-8.5-26.6-12.4-30.5-20.5-2.4-5-2.7-13.2-.8-18.7.7-1.9 8.6-15.9 17.6-31s20.5-34.5 25.6-43c5-8.5 13.8-23.2 19.5-32.5 5.7-9.4 13.8-22.9 18-30 4.3-7.2 10.8-18 14.5-24 3.7-6.1 13.1-21.6 20.7-34.5 18.5-31.1 21.3-34.4 32.3-38.2 9-3.1 15.9-2.4 30.8 3.1M822 696c15.3 4.4 33.8 15.6 45.3 27.3 6.6 6.9 16.2 20.9 19.7 29.1 4.2 9.8 7.7 31.6 5 31.6-1.3 0-16.8-6.2-42.5-17-19.7-8.3-86-35.6-102.5-42.3-4.1-1.7-7.9-3.4-8.4-3.8-1.2-1.1 14.1-16.1 19.6-19.1 12.8-7 21.4-8.8 40.8-8.4 12.2.3 17.1.8 23 2.6M422.4 854.6c-4.8 8.2-9.4 16-10.4 17.4-4.1 6-17.9 31.9-19 35.5-.7 2.4-1.1 8.4-.8 14.5.4 12.3 2.8 18.8 9.9 26.5 6.1 6.6 10.7 9.5 24.5 15.6l11.9 5.3 37.5 37.1c42.3 41.8 44.1 43.5 47.6 43.5 1.3 0 5.5-1.6 9.3-3.5 15.3-7.6 31-6.2 48.7 4.4 5.1 3.1 7.3 3.9 9.3 3.4 1.4-.3 6.9-3.6 12.2-7.3l9.5-6.7 9.6 4.1c5.3 2.3 9.9 4.4 10.2 4.7.4.3-5.6 4.8-13.1 9.9-7.6 5.2-19.2 13.3-25.8 18s-15.4 10.9-19.5 13.6c-4.1 2.8-10.9 7.4-15 10.2-4.1 2.9-8 5.1-8.6 5-2.1-.5-207.4-203.4-207.4-204.9 0-.7 19.6-14.5 48.5-34.2 5.5-3.8 16.5-11.5 24.5-17.1 8-5.7 14.6-10.2 14.8-10.1.2.2-3.6 7-8.4 15.1M491 990.1c14.6 6.2 26.1 10.9 62.1 25.7 23 9.4 41.9 18.2 41.9 19.3 0 .5-1.1 1.1-2.5 1.5-1.6.4-5.1-.6-11.2-3.4-12.4-5.7-16.4-6.6-28.3-6.5-8.7 0-11.8.5-18 2.7-4.1 1.5-8.4 2.9-9.5 3.2-1.6.4-7.3-4.8-26.5-24.1-13.5-13.5-24-24.5-23.5-24.5.6 0 7.5 2.7 15.5 6.1m-14.4 68.4c34.4 34.1 64.1 63 65.9 64.3 2.1 1.5 4.7 2.3 7.4 2.4 3.8 0 6.2-1.3 24.4-13.7 11.1-7.5 25.7-17.6 32.5-22.4 6.7-4.7 20-13.8 29.4-20.2l17.2-11.6 16.6 6.7c9.1 3.7 20.5 8.4 25.3 10.5l8.8 3.9-21.9 22c-29.6 29.9-42.6 44.5-57.9 65.1-28.5 38.4-50.3 75-79.5 133-8.2 16.5-15.8 31.3-16.8 33-1 1.6-5.5 11-10 20.8-6.1 13.1-8.6 17.5-9.5 16.7-.6-.5-2.4-4.2-4-8.2-3.5-8.8-8.3-14.4-13.7-15.9-4.3-1.1-7.8-.8-20.5 2.2-5.9 1.4-8.8 1.7-10.2 1-1.1-.6-3.3-5.1-5.5-10.9-3.8-9.9-7.6-15.2-13.3-18.1-3.3-1.7-10.2-1.3-20.8 1-7.1 1.6-9.9 1.8-10.9 1-.7-.6-2.6-4.6-4.1-8.9-4.7-12.9-7-16.8-11.8-19.7-5.5-3.1-8.8-3.1-20.5 0-14.9 4-14.7 4.1-19.7-9.5-7-18.7-12.5-21.6-32.5-17-13.1 3-12.4 3.3-16-6.3-5.2-13.7-6.2-15.6-10.6-19.7-5-4.6-8.1-5-19.9-2.5-12.7 2.7-13.2 5.5 5.8-32.3 49.5-98.2 67.2-129.6 90.5-160.7 13.1-17.4 40.7-48.9 42.3-48.3.4.2 29 28.2 63.5 62.3M197 1026.8c6.3 2.7 14.2 6 17.5 7.5 3.3 1.4 11 4.5 17 6.8 6.1 2.3 17.3 7 25 10.4 7.7 3.5 19.6 8.8 26.5 11.9 28.6 12.7 40.5 18.4 40.8 19.7.1.8-3.2 7.2-7.4 14.4-4.2 7.1-9.5 16.7-11.7 21.2-3.8 8-4.9 9.3-6.1 7.4-.4-.5-4.3-3.1-8.9-5.7-4.5-2.5-21.5-12.6-37.7-22.2s-35.6-21.1-43-25.5c-25.2-14.8-25-14.5-25-36.2 0-8 .3-14.5.8-14.5.4 0 5.9 2.2 12.2 4.8m1665.9 56.4c-.6 5.5-1.5 8.7-3.1 11.1-2.5 3.6-20.9 21.5-60.3 58.7-34.6 32.6-43.1 40.7-57.5 54.6-6.9 6.7-16.6 15.9-21.6 20.5-11.2 10.3-85.2 80.8-106.4 101.4-35.9 34.8-47.8 46.4-72 69.5-14 13.5-29.1 27.9-33.5 32-4.3 4.1-13.6 12.9-20.5 19.6-6.9 6.6-16.5 15.8-21.5 20.4-4.9 4.6-18.2 17.2-29.5 28-11.3 10.7-32.9 31.2-48 45.5s-46.2 44.1-69.3 66.2c-23 22.1-46.6 44-52.4 48.7-11.1 8.9-20.6 14.6-22 13.2-.4-.4-.9-12.3-1.1-26.5l-.3-25.7 9.5-3.8c7.9-3.1 11-5 18.3-11.4 8.2-7 28.2-25.7 49.8-46.2 5-4.8 12.8-12.2 17.5-16.5 4.7-4.4 13.9-13.1 20.5-19.5 28.4-27.5 77.2-73.3 81.3-76.4 1.6-1.2 6-5.3 9.8-9.1 3.8-3.9 18.1-17.6 31.7-30.5 13.7-12.9 35.9-34.1 49.5-47.1 26.4-25.2 79.2-75.3 90.6-86 3.8-3.5 11.2-10.5 16.5-15.4 5.3-5 29.7-28.1 54.2-51.5s53.3-50.7 64-60.7 26.4-24.9 35-33c8.5-8.1 27.9-26.5 43-40.7l27.4-25.9.6 14.4c.3 7.9.2 17.9-.2 22.1M601.2 1262.7c19.3 22.1 34.4 42.6 44.7 60.8 5.4 9.4 6.6 13.1 3.4 10.3-1-.8-8.5-5.5-16.8-10.3-29.8-17.5-61.5-36.6-61.5-37.1 0-.7 13.9-26.3 16.6-30.7 1.4-2 2.8-3.7 3.3-3.7s5.2 4.8 10.3 10.7m147.7 113.9c40.4 6.7 73.4 19.1 119.1 44.6 6.9 3.9 16.3 9.5 21 12.6 8.6 5.6 61 37.3 73 44.2 3.6 2 14.8 8.8 25 15s22.6 13.6 27.5 16.5c16.8 9.7 39 23.1 45.7 27.6 3.7 2.4 12.6 7.8 19.8 11.9s18.3 10.8 24.7 14.8 13.5 8.3 15.7 9.4c2.3 1.2 13.8 7.9 25.6 15.1 41.1 24.9 51.2 30.1 63.4 33.2l9.1 2.2.5 25.2c.3 13.9.2 25.5-.2 25.7-1.3.8-19-6.5-24.2-9.9-2.9-1.9-7.2-4.5-9.7-5.7-2.4-1.2-8.2-4.6-12.9-7.5-9-5.5-18.3-11.1-47-28.1-9.6-5.6-22-13.1-27.5-16.5s-12.9-7.8-16.5-9.7-10.6-6.1-15.6-9.3c-5-3.3-9.4-5.9-9.8-5.9-.8 0-27.3-15.7-40.6-24-4.1-2.6-9.1-5.5-11-6.5s-11.7-6.9-21.8-13.2c-10-6.2-24.4-14.9-32-19.2-7.5-4.3-17.1-9.9-21.2-12.4s-18.1-10.8-31-18.5c-21.8-12.9-35.2-20.8-63.5-37.4-6-3.6-17.7-10.5-26-15.5-8.2-4.9-21.1-12.6-28.5-17-22.6-13.3-42-24.7-52.5-30.9-10.8-6.4-17.8-12-16.9-13.6 1-1.5 21.5 0 38.3 2.8"/><path class="glyph" d="M949.3 636.4c-12.2 4-20.5 16-18.9 27.3 1.9 14 13.4 23.6 28.1 23.7 9.7.1 16.3-2.4 21.4-7.9 5.3-5.7 7.1-10.4 7.1-17.9-.1-10.4-5.7-18.9-15.8-23.7-5.8-2.7-16-3.4-21.9-1.5m-396 119.2c-5.3 2.7-9.2 7.9-20.6 27.5-12.1 21-13.2 23.5-12.3 28.4 1.2 6.4 4.5 8.3 37.2 22 33.6 14 37.5 15 44 11.7 5.8-3 8.4-6.2 17.5-21.7 15.4-26.1 16.7-29.2 14.8-35.9-1.9-6.8-3-7.4-47.4-25.2-22.4-9-26.9-9.9-33.2-6.8m16.4 8.5c2.9 1.1 5.3 2.5 5.3 3 0 2-7.4 11.9-8.9 11.9-1.7 0-15.7-5.2-16.7-6.3-.9-.8 4.2-9.4 6.4-10.7 2.1-1.2 6.7-.5 13.9 2.1m35.5 14.4c10 4.1 18.8 8.2 19.5 9.2 2.8 3.8.3 14.3-3.4 14.3-.9 0-6.8-2.1-13-4.7-9.8-3.9-11.6-4.4-12.8-3.2-.7.8-5.2 8.2-9.9 16.5-9.3 16.2-11.7 19.4-14.4 19.4-3 0-17.7-6.6-18-8.1-.3-1.8 25.1-47.7 27.5-49.5 1-.7 2.8-1.4 4-1.4s10.4 3.4 20.5 7.5m-50.9 4.2c4.3 1.5 7.7 3.2 7.7 4 0 .7-1.2 3.7-2.7 6.8-1.8 3.7-3.3 5.5-4.5 5.5-3.4 0-16.8-6.2-16.8-7.8 0-2.6 5.3-11.2 6.9-11.2.9 0 5.1 1.2 9.4 2.7m-12.2 19.7c9.8 4 10.3 4.9 6.4 12.5L546 820l-3.8-1.6c-2-.9-4.4-1.8-5.2-2.1s-3-1.7-4.7-3c-2.5-1.8-3.3-3.2-3.3-5.4 0-3.1 2.5-8.9 3.8-8.9.5 0 4.6 1.5 9.3 3.4m68 3c3.5 1.3 6.5 3.1 6.7 3.9.5 2.3-4.6 11.7-6.3 11.7-.9 0-5.2-1.4-9.5-3.1-5.4-2-8-3.6-8-4.6 0-.9 1.1-3.6 2.5-6 3.1-5.2 5.2-5.5 14.6-1.9m-12.4 19.1c3.8 1.5 7.2 3 7.6 3.4 1.2 1.2-1.7 6.5-4.9 9-1.5 1.2-3.9 2.1-5.5 2.1-3.5 0-13.9-3.8-13.9-5.1 0-1.1 3.8-8.8 5.2-10.7 1.5-1.8 4-1.5 11.5 1.3m-107.2 31.1c-3.2 3.5-3.3 8.3-.2 11.2 2.5 2.4-2.4.3 78.2 33.7 34.1 14.1 68.3 28.3 76 31.5s20.1 8.3 27.5 11.3c21.5 8.8 58.6 24.1 83.5 34.4 56.1 23.2 93.2 38.2 96 38.9 5.8 1.4 11.5-2.6 11.5-8.1 0-6.1 7.2-2.7-102.5-48-62.1-25.6-85.4-35.2-108-44.5-11-4.5-47.9-19.8-82-34-34.1-14.1-63.9-26.4-66.3-27.3-6.4-2.5-10.8-2.2-13.7.9m-30.4 52c-3.9 3.2-4.2 8-.8 11.1 2.1 2 24.8 12 55.7 24.6 7.4 3 20.3 8.3 28.5 11.7 8.3 3.4 22.4 9.3 31.5 13s25.9 10.6 37.3 15.4c21.3 8.8 26.3 10 30 7.2 2.2-1.7 3.5-6.3 2.8-9.6-.7-3-3.7-4.6-33.6-17-97.4-40.6-142.9-59-145.9-59-1.4 0-3.8 1.2-5.5 2.6m-76 171c-2.5 3.2-2.6 5.2-.6 8.1.8 1.1 15.7 9.5 33.2 18.6s39.9 20.8 49.7 26.2c20 10.7 23.1 11.4 26.9 6.3 1.7-2.3 1.8-3 .7-5.7-1.9-4.6 1.1-2.9-79.4-44.7-23.9-12.5-26.9-13.4-30.5-8.8m-23.5 40.5c-1.7 1.3-2.6 3-2.6 4.8 0 5.3-3.4 3.2 60.7 36.7 20.4 10.7 38.2 19.4 39.6 19.4 1.6 0 3.5-1.1 5.1-3.1 2.9-3.4 3.1-4.2 1.6-7s-5.1-4.9-37-21.4c-15.7-8.1-35.5-18.5-44.1-23.1s-16.8-8.4-18.2-8.4c-1.3 0-3.6.9-5.1 2.1m168.9 36.4c-5.5 5.4-3.2 8.2 15.5 18.1 8 4.2 15.4 8.3 16.5 9 3 2.2 7.3 1.7 10-1.1 2.8-2.7 3-4.2 1.4-7.9-1.4-3-34.1-20.6-38.3-20.6-1.5 0-3.8 1.1-5.1 2.5m-190.6 2.5c-.9.5-2.2 2.3-2.9 3.9-2.2 5.5-.1 7.6 17 16.8 26.5 14.3 63.7 33.3 65.2 33.3 2.5 0 5.8-4.4 5.8-7.7 0-1.7-.8-4-1.7-5.1-1-1.2-16.2-9.6-33.8-18.7-17.6-9.2-34.2-17.9-37-19.5-5.9-3.2-10.4-4.3-12.6-3m167.7 37.4c-3.5 2.8-4 7.7-1 10.5 1 1.1 9.1 5.8 18 10.5 17.3 9.3 21.5 10.4 24.9 6.6 2.6-2.9 2.4-7.9-.4-10.2-2.6-2-33.5-18.2-36.6-19.2-1.3-.4-3.1.3-4.9 1.8m-24.4 41.9c-.6.7-1.5 2.4-2 3.8-1.8 4.5.7 7 14.5 14.2 7 3.7 14.8 7.9 17.3 9.2 5 2.8 7.1 3 10.3 1.4 3-1.6 3.7-2.8 3.7-6.5 0-4.4-3.3-7-20.3-15.8-15.1-7.8-21-9.3-23.5-6.3M1774 729.1c-3 .5-8.6 2.4-12.5 4.3-8.7 4.1-62.9 40.5-90.2 60.5-7 5.2-21.6 15.9-32.3 23.8-10.7 7.8-25.8 19.1-33.5 25-7.7 5.8-21.2 16.1-30 22.7S1557 879.5 1554 882c-3 2.6-9.3 7.5-14 11s-11.5 8.9-15.1 11.9c-3.6 3.1-12.1 10-18.8 15.5-6.6 5.4-12.1 10.1-12.1 10.5 0 .3 2.4 1.9 5.2 3.6 20.1 11.7 42.7 34.7 56.3 57.3 5.5 9.2 13.3 26.9 14.6 32.9.6 2.9 1.6 5.3 2.2 5.3 1.4-.1 7.1-4.1 22.9-16.2 6.2-4.9 16.7-12.9 23.3-17.9 28.2-21.3 46.4-35.2 62.1-47.9 6.6-5.2 13.7-10.8 15.9-12.5 2.2-1.6 7.8-6.2 12.5-10.1 4.7-4 13-10.9 18.5-15.4 18.1-14.9 31.8-26.4 37.5-31.5 9.4-8.6 20.3-18 25-21.6 2.5-1.9 11.9-9.8 21-17.6 22-18.9 27.3-26.8 30-44.8 3.5-23.3-7-44.7-28.6-58.4-9.5-6.1-26.1-9.1-38.4-7m-423.6 76.3c-6.5 2.8-9.6 12-5.9 17.4 1.9 2.6 9.6 7.1 31.8 18.6 9.3 4.7 25 13.3 35 19 10 5.6 25 13.8 33.2 18.1 8.3 4.2 21 11.3 28.3 15.7l13.2 8 3.7-2.8c2-1.5 5.8-4.7 8.5-7 2.6-2.4 5.7-4.8 6.8-5.4s2-1.5 2-1.9c0-.5-3.3-2.7-7.2-4.9-4-2.1-12.9-7-19.8-10.9-6.9-3.8-19.5-10.7-28-15.3s-17.3-9.5-19.5-10.9c-4-2.4-24.1-13.4-55.6-30.2-17.5-9.3-20.3-10.2-26.5-7.5m-53.9 55.3c-6.8 1.3-11.5 6.1-11.5 11.9 0 3.6 2.4 8.2 5.2 10.3 4.6 3.4 23.1 13.7 52.8 29.5 8.5 4.6 22.7 12.2 31.5 17.1 8.8 4.8 20.7 11.3 26.5 14.3s14.5 7.7 19.3 10.4c4.9 2.8 9.4 4.7 10.3 4.4 2.3-.9 19.3-14 19.4-14.9 0-1.8-17.6-12.1-61.5-35.9-6-3.3-11.4-6.3-12-6.8-.5-.4-6.4-3.6-13-7-15.6-8.2-35.3-18.7-48.7-26.2-11.2-6.2-15-7.7-18.3-7.1m-62.2 60.3c-1.8 1-3.9 3.3-4.8 4.9-3.7 7.3-.4 13.8 9.5 19 3.6 1.8 11.7 6.3 18 9.9s19.2 10.6 28.5 15.5c9.4 4.9 25.1 13.3 35 18.7 20.1 10.9 24.1 12.5 29 11.6 4-.8 9-5.4 9.7-9 .8-4-1.8-9.8-6.1-13.7-2.1-1.9-8.1-5.6-13.3-8.2-13.5-6.8-32.9-17-43.8-23.2-5.2-2.9-12.9-7-17-9-4.1-2.1-12-6.3-17.5-9.5-10.1-5.7-18.1-9-21.9-9-1.2 0-3.5.9-5.3 2m245.7 31.1c-1.9 1.2-7.1 5.2-11.5 8.9-7.4 6.2-23.8 19.2-68 54-9.5 7.4-25.7 20.2-36 28.5-10.3 8.2-24.2 19.3-30.9 24.6-6.6 5.2-24.4 19.4-39.5 31.5-15 12-34.8 27.9-44 35.2-9.1 7.3-20.6 16.6-25.6 20.7-28.5 23.4-33.4 27.3-37 30-7.9 5.8-32.4 26.7-36 30.7-3.4 3.7-3.6 4.4-3.3 9.1.2 2.9.6 5.8.9 6.4.6 1.8-17.1 9.9-38.4 17.8-9.5 3.4-20.2 7.6-23.8 9.3-6.4 2.9-6.7 3.2-8.4 8.4-3.7 11.2-19.1 46.3-30.6 69.5-6.5 13.3-11.9 24.9-11.9 25.7 0 2.7 2.2 6.3 4.4 7.6 2.7 1.4 12.2-.2 36.2-6.1 24.3-5.9 48.3-10.6 63.9-12.4 15.1-1.7 16.6-2.4 19-8.2 2.1-4.9 19.9-32.6 27.9-43.3 3.9-5.2 7.4-9.9 7.7-10.4.4-.4 2 .2 3.7 1.4 2.1 1.6 4.5 2.2 7.8 2.3 4.2 0 5.8-.6 11.9-4.8 3.9-2.6 9.9-7.1 13.5-10 3.6-2.8 8.1-6.3 10-7.7 6.9-5 35.7-26.3 47.5-35.1 23-17.4 71.9-54.3 81-61.2 5-3.9 19.3-14.6 31.6-23.9s28-21.3 34.9-26.6 25.6-19.5 41.5-31.5c16-12 32.2-24.3 36-27.4 7.6-6 16.4-12.9 27.8-21.8 11-8.6 10.9-8.4 9-14.5-.8-2.8-3.9-10.1-6.9-16.2-5.8-11.9-19.6-30.3-33-44.2-7.7-7.9-22.4-18.4-25.7-18.4-1.2 0-3.8 1-5.7 2.1m-309.7 303.1c4.2 5.1 9.2 11.2 11.2 13.5 4.2 4.9 4.4 4.4-4.6 16.5-3.2 4.3-11 16.1-17.4 26.1-6.3 10.1-12.9 19.6-14.5 21.2-2.5 2.4-4 2.9-11.7 3.6-7.7.8-48.5 8.5-55.2 10.5-2.3.7-2.3.7-.6-2 .9-1.4 4-4.3 6.9-6.3 7.1-5.2 24.5-19 28.3-22.6 2.9-2.8 3.8-3 8.8-2.8 4.8.2 6.1-.2 9.2-2.5 3.6-2.7 6.3-7.6 6.3-11.5 0-6.6-6.5-12.9-13.2-12.9-7.4 0-10.9 3.3-14.2 13.5-1.6 4.9-2.2 5.5-18.4 17.2-9.2 6.7-18 13.5-19.6 15.2-4.6 4.8-4.9 3.7-1.1-3.9 5-9.9 19.4-42.6 21.4-48.5 2.1-6.1 3-6.6 28.6-16.4 9.9-3.8 23-9.2 29-11.9 6.1-2.8 11.5-5 12.1-5.1.7-.1 4.6 4.1 8.7 9.1"/></svg>